PathFileType	4	(X/Y/Z)	./resultDataOpenSim/trcMotMarkerGrf/sub10/qtm-02-04.trc
DataRate	CameraRate	NumFrames	NumMarkers	Units	OrigDataRate	OrigDataStartFrame	OrigNumFrames
250.000000	250.000000	9	24	m	250.000000	429	490
Frame#	Time	L.Toe.Tip			R.Toe.Tip			L.Ankle.Lat			R.Ankle.Lat			L.Ankle.Med			R.Ankle.Med			L.Heel			R.Heel			L.Knee.Lat			R.Knee.Lat			L.Knee.Med			R.Knee.Med			L.Thigh.Upper			R.Thigh.Upper			L.ASIS			R.ASIS			V.Sacral			L.Acromium			R.Acromium			C7			L.Elbow			R.Elbow			L.Wrist.Lat			R.Wrist.Lat
		X1	Y1	Z1	X2	Y2	Z2	X3	Y3	Z3	X4	Y4	Z4	X5	Y5	Z5	X6	Y6	Z6	X7	Y7	Z7	X8	Y8	Z8	X9	Y9	Z9	X10	Y10	Z10	X11	Y11	Z11	X12	Y12	Z12	X13	Y13	Z13	X14	Y14	Z14	X15	Y15	Z15	X16	Y16	Z16	X17	Y17	Z17	X18	Y18	Z18	X19	Y19	Z19	X20	Y20	Z20	X21	Y21	Z21	X22	Y22	Z22	X23	Y23	Z23	X24	Y24	Z24

429	1.712	1.6040313	0.13013872	-0.1243705	0.85415768	0.038058019	0.032646747	1.4798671	0.091920927	-0.16666707	0.71947784	0.080624185	0.062537767	1.475653	0.11254518	-0.086653439	0.7487501	0.10039868	-0.02094606	1.436778	0.032039947	-0.12851965	0.66508581	0.068423185	0.014345398	1.3198537	0.45131097	-0.1771826	0.92205869	0.4298286	0.10401109	1.3221577	0.41859038	-0.059339553	0.95387048	0.4255233	-0.021812421	1.172952	0.79951982	-0.21455057	1.0230343	0.82881536	0.14974379	1.1971002	0.91036628	-0.13181045	1.1224896	0.91662428	0.10739898	0.96794127	0.90922721	-0.078753454	1.0814345	1.3734361	-0.19570296	1.054562	1.3707653	0.12647032	0.98317727	1.3997194	-0.045291269	0.91698865	1.0815596	-0.27845543	1.0787353	1.0189275	0.22538389	0.96967135	0.85048998	-0.33153839	1.3232572	0.96023738	0.2098324
430	1.716	1.6090012	0.12747327	-0.12554007	0.85442162	0.038096157	0.032715661	1.4845698	0.09044575	-0.16781411	0.72051246	0.082507237	0.062952009	1.4805385	0.11073528	-0.087723247	0.74989399	0.10190065	-0.020570744	1.441014	0.030726947	-0.12986972	0.66592052	0.071030366	0.014855914	1.3278357	0.4513468	-0.17736981	0.92638471	0.42952858	0.10382094	1.3306579	0.41880732	-0.059553765	0.95892042	0.42470315	-0.021724607	1.1797582	0.79935198	-0.21481395	1.0283869	0.8281882	0.14898992	1.2039906	0.90961442	-0.1316685	1.1284436	0.91583332	0.10733041	0.97459384	0.90823786	-0.079605454	1.0873319	1.3725991	-0.19648029	1.0605749	1.370042	0.12576392	0.98916828	1.3988304	-0.046080815	0.92270605	1.0807625	-0.27883959	1.085573	1.0181867	0.22417483	0.97519081	0.84963343	-0.33209489	1.3302412	0.96032014	0.20807176
431	1.72	1.6136193	0.12463074	-0.12680424	0.85470697	0.038135058	0.032788917	1.4888817	0.088866049	-0.16889698	0.72165923	0.084470682	0.063365527	1.4850727	0.1088276	-0.088719865	0.75112885	0.10348536	-0.020169547	1.4448208	0.02931971	-0.13111965	0.66687183	0.073758401	0.015335974	1.3357605	0.45134899	-0.1775403	0.93081418	0.42925607	0.10362474	1.3393247	0.41902428	-0.059714167	0.96407317	0.42389595	-0.021636082	1.186518	0.7992851	-0.21510487	1.0338678	0.82758748	0.14821008	1.2109265	0.90896855	-0.1315986	1.134596	0.91509461	0.10717209	0.98130179	0.90730061	-0.080406327	1.093267	1.3718121	-0.19727917	1.0666093	1.3693801	0.12503952	0.99519256	1.3979823	-0.046874281	0.92851363	1.0800051	-0.27923036	1.092299	1.0174635	0.22288177	0.9807259	0.84880963	-0.3326028	1.3371303	0.96037677	0.20631254
432	1.724	1.6178825	0.12173647	-0.12817489	0.85501056	0.038174538	0.032858912	1.49283	0.087198044	-0.16990644	0.72290528	0.086533521	0.063791698	1.4892703	0.10687559	-0.089615582	0.75246836	0.10514424	-0.019750301	1.4482462	0.027836181	-0.1322637	0.66794483	0.076607368	0.01578617	1.3436189	0.45131681	-0.17770073	0.93533838	0.429019	0.10341696	1.3484054	0.41923629	-0.059740363	0.96932847	0.42311226	-0.021551019	1.193255	0.79928568	-0.21542267	1.0394893	0.82701652	0.14741309	1.2179065	0.90843172	-0.13160174	1.1409738	0.91440859	0.10689899	0.98805851	0.90642992	-0.081162539	1.0992417	1.3710724	-0.1980931	1.0726624	1.3687785	0.12429481	1.0012506	1.3971627	-0.04767357	0.93440874	1.0792783	-0.2796381	1.0988915	1.0167382	0.221504	0.98629427	0.84801393	-0.33306523	1.3439217	0.96040539	0.20456027
433	1.728	1.6217181	0.11897934	-0.12959421	0.85533851	0.038220237	0.032912536	1.4964372	0.085449789	-0.17082843	0.72426735	0.088709394	0.064232213	1.4931659	0.10497369	-0.090362445	0.75392119	0.10687631	-0.019322185	1.45132	0.026298953	-0.13326993	0.66913662	0.079582691	0.016227728	1.3514025	0.45124947	-0.17786072	0.93996475	0.42882494	0.10320866	1.3580881	0.41944647	-0.059566916	0.97468182	0.42236145	-0.021474007	1.1999917	0.79932935	-0.2157744	1.0452525	0.82647279	0.14660406	1.2249276	0.9080085	-0.13167215	1.1475721	0.91377133	0.10650853	0.99487519	0.90563743	-0.081877765	1.1052537	1.3703793	-0.19891709	1.0787319	1.3682335	0.12352746	1.0073412	1.3963684	-0.048487165	0.94039176	1.0785665	-0.28005777	1.1053677	1.0160259	0.22004532	0.99193532	0.84723317	-0.33349167	1.3506156	0.960402	0.20281962
434	1.732	1.6250376	0.11650062	-0.13091713	0.85570292	0.038276409	0.032938062	1.4997198	0.083624137	-0.17164187	0.72577894	0.091004414	0.064686922	1.4968034	0.10320382	-0.090917202	0.75549578	0.10869082	-0.018891876	1.4540447	0.024752291	-0.13411525	0.67043696	0.082696182	0.01669572	1.359097	0.45114416	-0.178027	0.94472173	0.42868303	0.10303099	1.3681032	0.41966312	-0.059274255	0.98012369	0.42164949	-0.021408853	1.2067475	0.79939852	-0.21616332	1.0511535	0.82594444	0.14578427	1.2319877	0.90769906	-0.13180805	1.1543017	0.91317336	0.1060697	1.0017665	0.90492968	-0.082555063	1.1113047	1.3697325	-0.19974715	1.0848236	1.3677402	0.12273389	1.0134616	1.3956062	-0.049322097	0.94646391	1.0778623	-0.28047955	1.1117822	1.0153771	0.21851778	0.99767542	0.84645954	-0.33388915	1.3572112	0.96036069	0.20109334
435	1.736	1.6279086	0.11415557	-0.13203669	0.85610803	0.038334058	0.032937165	1.502703	0.081721815	-0.1723358	0.72745578	0.093410277	0.065154471	1.5002091	0.10152744	-0.091302199	0.75720618	0.11060017	-0.01846188	1.4563884	0.023293409	-0.13480257	0.67184092	0.085955311	0.0172107	1.3666832	0.45099351	-0.1782062	0.94964752	0.42859324	0.10290145	1.3777698	0.41988868	-0.059066687	0.98564646	0.42097963	-0.021357756	1.2135391	0.79947778	-0.21658213	1.0572013	0.82541528	0.14495823	1.2390897	0.90749051	-0.13201363	1.160988	0.91260314	0.10571773	1.0087563	0.90430957	-0.083200152	1.1173921	1.3691264	-0.20058172	1.0909501	1.3672994	0.12191128	1.0196079	1.3948834	-0.050176132	0.95262213	1.0771674	-0.28090145	1.1181758	1.0148254	0.2169326	1.0035274	0.84569485	-0.33426413	1.3637104	0.96027678	0.19938069
436	1.74	1.6306264	0.11152552	-0.13304339	0.85654266	0.03837359	0.032925898	1.5054344	0.079736126	-0.17292615	0.7292814	0.095907642	0.065630312	1.5033821	0.099793063	-0.091605235	0.75907067	0.11260792	-0.018034832	1.4582982	0.022066735	-0.13534627	0.67336697	0.089352214	0.017740613	1.3741466	0.45078659	-0.17840783	0.95476533	0.42854335	0.10280056	1.3866476	0.42011567	-0.059073246	0.99125368	0.42035394	-0.021322185	1.2203767	0.79955001	-0.21701576	1.0634318	0.8248789	0.14414195	1.2462367	0.90736005	-0.13229033	1.167489	0.91205019	0.10555403	1.0158771	0.90377494	-0.083832535	1.1235071	1.3685489	-0.20142366	1.0971183	1.3669169	0.12106166	1.0257771	1.3941963	-0.051039947	0.95886149	1.0764861	-0.28132381	1.1245466	1.0143577	0.21529426	1.0094937	0.84494374	-0.33462157	1.3701205	0.96014966	0.19767805
437	1.744	1.6335642	0.10827305	-0.13420971	0.8569906	0.03838373	0.032920995	1.5079863	0.077657567	-0.17345493	0.73121473	0.09848224	0.066096127	1.5063292	0.097906582	-0.091888112	0.76110131	0.11469962	-0.017617448	1.4597663	0.021186163	-0.13575538	0.67505352	0.092869178	0.018208801	1.3814865	0.4505117	-0.1786409	0.96006704	0.42851899	0.10269115	1.3948502	0.42033127	-0.059263515	0.99695886	0.41977505	-0.02130292	1.2272647	0.79959909	-0.21745226	1.0698918	0.82434459	0.1433603	1.2534232	0.90728615	-0.13263285	1.1738607	0.91150636	0.10553245	1.0231427	0.9033186	-0.084481222	1.1296461	1.3679923	-0.20227999	1.1033247	1.3665966	0.12018568	1.0319701	1.3935287	-0.051906282	0.96517939	1.0758198	-0.28174494	1.1308665	1.0139405	0.213606	1.0155708	0.84420666	-0.33496601	1.3764472	0.95998356	0.19598257
